<svg width="24" height="24" viewBox="100 110 940 940" xmlns="http://www.w3.org/2000/svg" role="img" aria-labelledby="nerve-mark-title">
  <title id="nerve-mark-title">Nerve</title>
  <path fill="currentColor" d="M557.8 195.5c-27.7 7-46.8 34.8-42.8 62.3 4.9 34.8 38.3 57.3 70.8 47.7l6.4-1.8 60.4 60.4 60.4 60.4v141.7l6.3-5.7c7.6-7 18.9-14.6 28-18.8l6.7-3.2v-141l33.5-33.5 33.5-33.5V534h14.7c13.7 0 14.9-.1 18.8-2.5 8.1-4.7 7.5 5.9 7.5-133.4V274h-20.2l-20.3.1-50.3 49.5-50.2 49.6-6.9-6.3c-3.7-3.5-26.2-25.8-50-49.4l-43.2-43 2-4.5c17.2-39.1-23.1-85.2-65.1-74.5m-278 78.1c-.5.4-.8 56.7-.8 125.2v124.5l2.1 3.4c3.8 6 7.9 7.3 23.9 7.3h14l.2-109.3.3-109.2 49.5-.3 49.5-.2 54 53.7c29.7 29.6 63.1 62.8 74.3 73.8l20.2 20 14.2-14.3 14.3-14.2-80-80-80-80-77.5-.6c-42.6-.3-77.8-.3-78.2.2M386 449.5c0 83.7 0 83.8-4.8 93-2.8 5.6-7.7 9.9-14.7 13.2l-6 2.8-41 .7c-22.5.3-41.8.4-42.7.2-1-.3-3.2-3.3-5-6.7-4.4-8.4-15.4-19.3-23.8-23.4-50.9-25.3-102.9 30.8-73.8 79.5 22.3 37.3 77.5 35.8 97.6-2.6l3.3-6.2h42.7c39.4 0 43.4-.2 51.1-2 24.4-5.9 43.9-22.8 52.9-46 4.9-12.4 5.4-17 6.1-49.6l.6-31.1 41.8 41.1 41.7 41.1-2.1 6.5c-4.9 15-3.4 34.8 3.8 49 14.8 29.7 55.5 43.4 84.4 28.5 2.5-1.3 3.4-.5 78.5 74.6 41.7 41.7 76.2 75.9 76.6 75.9.5 0 .8-34.1.8-75.8 0-82.4.1-84.2 5.6-94.3 3.5-6.3 9.1-11.4 16.3-14.8l5.6-2.6h85l3.5 6.5c15.7 29.1 53 38 80.7 19.2 29.6-20.1 33.2-61.3 7.8-86.7-27.8-27.8-72.2-19.8-90.4 16.2L866 560h-43.9c-40.3 0-44.4.2-51.5 2-19.8 5.1-39.1 20.7-47.9 39-8 16.6-8.9 21.8-9.6 57.6l-.6 31.2-41.6-41.3-41.6-41.2 2.5-7.4c17.6-51.9-36.2-101.6-85.9-79.3l-6.1 2.7-65.6-65.4c-36.1-36-70.8-70.4-76.9-76.4l-11.3-11zm35.5 147.6c-8 8.1-16.4 14.1-26.9 19l-8.6 4v142.2l-32.7 32.8c-18 18.1-33 32.9-33.5 32.9-.4 0-.8-45.5-.8-101.1v-101l-15.2.3c-14.1.3-15.5.5-18.6 2.6-7.2 5.2-6.7-5.4-6.7 133.2v124.5l20.2.3 20.2.2 50.2-50.5c27.6-27.8 50.6-50.5 51.1-50.5 2.7 0 99 98.3 98.3 100.4-8.5 25.9-4.3 45.9 13 63.1 22.4 22.3 56.7 21.9 79-.9 41.2-42 0-110.8-56.8-94.9l-5.9 1.6-59.9-59.9-59.9-59.9-.2-72.3-.3-72.3zM821 736v110h-98.5L649 772.5c-40.4-40.4-73.9-73.5-74.5-73.5-1.2 0-27.5 27.5-27.5 28.7 0 .4 35.7 36.5 79.3 80.1l79.2 79.2H862V761.7c0-123.2 0-125.3-2-128.5-3.9-6.3-6.7-7.2-23.7-7.2H821z"/>
</svg>
