<svg width="512" height="512" viewBox="0 0 512 512" fill="none" xmlns="http://www.w3.org/2000/svg" role="img" aria-labelledby="title desc">
  <title id="title">Nerve Sandbox — Guarded N concept</title>
  <desc id="desc">The Synaptic N surrounded by four open corner guards representing a bounded execution environment.</desc>

  <rect x="32" y="32" width="448" height="448" rx="120" fill="#0C0A09" />

  <g stroke="#FAFAF9" stroke-opacity="0.55" stroke-width="14" stroke-linecap="round" stroke-linejoin="round">
    <path d="M112 176V120Q112 112 120 112H176" />
    <path d="M336 112H392Q400 112 400 120V176" />
    <path d="M400 336V392Q400 400 392 400H336" />
    <path d="M176 400H120Q112 400 112 392V336" />
  </g>

  <g stroke="#FAFAF9" stroke-width="30" stroke-linecap="round" stroke-linejoin="round">
    <path d="M146 352V176Q146 144 176 160L237 237" />
    <path d="M275 275L336 352Q366 368 366 336V160" />
  </g>
  <rect x="236" y="236" width="40" height="40" rx="11" fill="#FAFAF9" />
</svg>
